<svg width="16" height="17" viewBox="0 0 16 17" fill="none" xmlns="http://www.w3.org/2000/svg">
<path fill-rule="evenodd" clip-rule="evenodd" d="M8 16.5C12.4183 16.5 16 12.9182 16 8.5C16 4.0818 12.4183 0.5 8 0.5C3.58172 0.5 0 4.0818 0 8.5C0 12.9182 3.58172 16.5 8 16.5ZM11.5442 4.95588C11.8382 5.24977 11.8382 5.72656 11.5442 6.02068L9.06483 8.5L11.5442 10.9793C11.8382 11.2734 11.8382 11.7502 11.5442 12.0441C11.2501 12.3382 10.7734 12.3382 10.4793 12.0441L8 9.5648L5.52065 12.0441C5.22662 12.3382 4.74989 12.3382 4.45582 12.0441C4.16179 11.7502 4.16179 11.2734 4.45582 10.9793L6.93517 8.5L4.45582 6.02068C4.16179 5.72656 4.16179 5.24977 4.45582 4.95588C4.74986 4.66176 5.22659 4.66176 5.52065 4.95588L8 7.4352L10.4793 4.95588C10.7734 4.66176 11.2501 4.66176 11.5442 4.95588Z" fill="#989BA2"/>
</svg>
