<svg width="16" height="16" viewBox="0 0 16 16" fill="none" xmlns="http://www.w3.org/2000/svg">
<path d="M7.62207 13.5074L10.9219 10.2075C12.7443 8.38511 12.7443 5.43033 10.9219 3.60788C9.09947 1.78543 6.14468 1.78543 4.32224 3.60788C2.49979 5.43033 2.49979 8.38511 4.32224 10.2075L7.62207 13.5074ZM7.62207 15.393L3.37943 11.1504C1.03628 8.80718 1.03628 5.00822 3.37943 2.66507C5.72258 0.321928 9.52154 0.321928 11.8647 2.66507C14.2079 5.00822 14.2079 8.80718 11.8647 11.1504L7.62207 15.393ZM7.62207 8.24105C8.35847 8.24105 8.9554 7.64411 8.9554 6.90771C8.9554 6.17133 8.35847 5.57438 7.62207 5.57438C6.88567 5.57438 6.28874 6.17133 6.28874 6.90771C6.28874 7.64411 6.88567 8.24105 7.62207 8.24105ZM7.62207 9.57438C6.14931 9.57438 4.9554 8.38045 4.9554 6.90771C4.9554 5.43495 6.14931 4.24105 7.62207 4.24105C9.0948 4.24105 10.2887 5.43495 10.2887 6.90771C10.2887 8.38045 9.0948 9.57438 7.62207 9.57438Z" fill="#989BA2"/>
</svg>
