<svg width="26" height="22" viewBox="0 0 26 22" fill="none" xmlns="http://www.w3.org/2000/svg">
<path fill-rule="evenodd" clip-rule="evenodd" d="M22.5214 0H3.47698C1.55803 0 0 1.51459 0 3.38353V14.3824C0 16.2513 1.55803 17.7675 3.47698 17.7675H10.2038L12.4917 21.5453C12.4917 21.5453 12.6496 22 13.0298 22C13.4117 22 13.5679 21.5453 13.5679 21.5453L15.8559 17.7675H22.5214C24.442 17.7675 26 16.2513 26 14.3824V3.38353C26 1.51459 24.442 0 22.5214 0ZM8.16881 9.72255C8.15753 11.7326 6.02107 11.7906 6.02107 11.7906C5.19452 11.7906 4.72888 11.2575 4.72888 11.2575V11.6197H3.17246V5.37633C3.26913 5.39201 4.72888 5.3732 4.72888 5.3732V7.76111C5.09463 7.15433 6.15319 7.16374 6.15319 7.16374C8.45721 7.37227 8.16881 9.72255 8.16881 9.72255ZM3.17246 5.3732C3.16602 5.37476 3.17246 5.37633 3.17246 5.37633V5.3732ZM10.9079 7.35502V11.6307H9.38526V7.39892C9.38526 6.8235 8.65217 6.66358 8.65217 6.66358V5.17094C11.0851 5.26658 10.9095 7.35659 10.9095 7.35659L10.9079 7.35502ZM14.5169 11.7938C13.1071 11.7938 11.9648 10.7699 11.9648 9.50775C11.9648 8.24559 13.1071 7.22018 14.5169 7.22018C15.9268 7.22018 17.0691 8.24402 17.0691 9.50775C17.0691 10.7715 15.9268 11.7938 14.5169 11.7938ZM22.8598 11.7938C22.8598 11.7938 22.8823 13.9669 20.6137 13.9669H19.9242V12.5589H20.3398C20.3398 12.5589 21.2937 12.6436 21.2824 11.2152C21.2824 11.2152 21.0955 11.7938 19.7598 11.7938C19.7598 11.7938 17.865 11.6605 17.865 9.8621V9.18006C17.865 9.18006 17.9085 7.31426 19.9902 7.16531C19.9902 7.16531 20.8119 7.08064 21.3162 7.74073V7.2829H22.8614V11.7953L22.8598 11.7938ZM13.5527 9.50638C13.5527 8.98898 13.9845 8.56878 14.5162 8.56878C15.0479 8.56878 15.4797 8.98741 15.4797 9.50638C15.4797 10.0254 15.0479 10.4456 14.5162 10.4456C13.9845 10.4456 13.5527 10.0238 13.5527 9.50638ZM4.77734 9.5314C4.77734 9.05005 5.17853 8.65965 5.67317 8.65965C6.16781 8.65965 6.569 9.05005 6.569 9.5314C6.569 10.0127 6.16781 10.4032 5.67317 10.4032C5.17853 10.4032 4.77734 10.0127 4.77734 9.5314ZM19.4951 9.50793C19.4951 9.0015 19.9173 8.59071 20.4377 8.59071C20.9581 8.59071 21.3802 9.0015 21.3802 9.50793C21.3802 10.0144 20.9581 10.4252 20.4377 10.4252C19.9173 10.4252 19.4951 10.0144 19.4951 9.50793Z" fill="#03C75A"/>
</svg>
