<svg width="16" height="16" viewBox="0 0 16 16" fill="none" xmlns="http://www.w3.org/2000/svg">
<path d="M7.62201 13.5076L10.9218 10.2077C12.7443 8.3853 12.7443 5.43051 10.9218 3.60806C9.09941 1.78562 6.14462 1.78562 4.32218 3.60806C2.49973 5.43051 2.49973 8.3853 4.32218 10.2077L7.62201 13.5076ZM7.62201 15.3932L3.37937 11.1506C1.03622 8.80736 1.03622 5.0084 3.37937 2.66526C5.72252 0.322111 9.52148 0.322111 11.8647 2.66526C14.2078 5.0084 14.2078 8.80736 11.8647 11.1506L7.62201 15.3932ZM7.62201 8.24123C8.35841 8.24123 8.95534 7.6443 8.95534 6.9079C8.95534 6.17152 8.35841 5.57456 7.62201 5.57456C6.88561 5.57456 6.28868 6.17152 6.28868 6.9079C6.28868 7.6443 6.88561 8.24123 7.62201 8.24123ZM7.62201 9.57456C6.14925 9.57456 4.95534 8.38063 4.95534 6.9079C4.95534 5.43514 6.14925 4.24123 7.62201 4.24123C9.09474 4.24123 10.2887 5.43514 10.2887 6.9079C10.2887 8.38063 9.09474 9.57456 7.62201 9.57456Z" fill="white"/>
</svg>
