<svg width="26" height="26" viewBox="0 0 26 26" fill="none" xmlns="http://www.w3.org/2000/svg">
<rect width="26" height="26" rx="6" fill="url(#paint0_linear_1541_19347)"/>
<path d="M12.9995 7.79346C12.4041 7.79346 11.8269 7.86911 11.2752 8.01069V6.66406C11.2752 6.6338 11.2709 6.60354 11.2656 6.57328C11.1559 5.09373 10.0216 4 8.63811 4C7.25462 4 6.11928 5.09373 6.00959 6.57328C6.0032 6.60354 6 11.628 6 11.628V14.8962C6 14.9189 6 14.9427 6 14.9654C6.03621 18.8572 9.15572 22 12.9995 22C16.8432 22 20 18.8204 20 14.8973C20 10.9741 16.8656 7.79346 12.9995 7.79346ZM12.9995 20.9084C9.72659 20.9084 7.07463 18.2174 7.07463 14.8962V6.71594C7.07463 5.83188 7.77436 5.11642 8.63705 5.11642C9.49973 5.11642 10.1995 5.83296 10.1995 6.71594L10.1963 14.8249C10.1963 16.3963 11.4488 17.7429 12.9984 17.7429C14.548 17.7429 15.8037 16.4687 15.8037 14.8962C15.8037 13.3237 14.547 12.0495 12.9984 12.0495C12.3487 12.0495 11.7502 12.2743 11.2741 12.6515V11.4334C11.7917 11.1676 12.3775 11.0174 12.9984 11.0174C15.1104 11.0174 16.823 12.7541 16.823 14.8973C16.823 17.0404 15.1104 18.7783 12.9984 18.7783C10.8864 18.7783 9.17383 17.0404 9.17383 14.8973V6.66406C9.17383 6.39712 8.93313 6.14422 8.63598 6.14422C8.33884 6.14422 8.09814 6.39712 8.09814 6.66406V14.8962C8.09814 15.0216 8.10453 15.1448 8.11305 15.2669C8.30049 17.8402 10.4146 19.8677 12.9973 19.8677C15.5801 19.8677 17.8965 17.6413 17.8965 14.8951C17.8965 12.1489 15.7025 9.92363 12.9973 9.92363C12.3903 9.92363 11.8098 10.036 11.273 10.2403V9.14224C11.8183 8.97364 12.3967 8.88286 12.9973 8.88286C16.2692 8.88286 18.9222 11.5739 18.9222 14.8951C18.9222 18.2163 16.2692 20.9074 12.9973 20.9074M11.2762 14.8962C11.2762 13.93 12.0484 13.1475 13.0005 13.1475C13.9527 13.1475 14.7248 13.9311 14.7248 14.8962C14.7248 15.8613 13.9527 16.6459 13.0005 16.6459C12.0484 16.6459 11.2762 15.8624 11.2762 14.8962Z" fill="white"/>
<defs>
<linearGradient id="paint0_linear_1541_19347" x1="13" y1="0" x2="13" y2="26" gradientUnits="userSpaceOnUse">
<stop stop-color="#67E858"/>
<stop offset="1" stop-color="#1AAF27"/>
</linearGradient>
</defs>
</svg>
