<svg width="16" height="16" viewBox="0 0 16 16" fill="none" xmlns="http://www.w3.org/2000/svg">
<path d="M7.62201 13.5076L10.9218 10.2078C12.7443 8.38536 12.7443 5.43057 10.9218 3.60813C9.09941 1.78568 6.14462 1.78568 4.32218 3.60813C2.49973 5.43057 2.49973 8.38536 4.32218 10.2078L7.62201 13.5076ZM7.62201 15.3932L3.37937 11.1506C1.03622 8.80743 1.03622 5.00847 3.37937 2.66532C5.72252 0.322172 9.52148 0.322172 11.8647 2.66532C14.2078 5.00847 14.2078 8.80743 11.8647 11.1506L7.62201 15.3932ZM7.62201 8.24129C8.35841 8.24129 8.95534 7.64436 8.95534 6.90796C8.95534 6.17158 8.35841 5.57463 7.62201 5.57463C6.88561 5.57463 6.28868 6.17158 6.28868 6.90796C6.28868 7.64436 6.88561 8.24129 7.62201 8.24129ZM7.62201 9.57463C6.14925 9.57463 4.95534 8.38069 4.95534 6.90796C4.95534 5.4352 6.14925 4.24129 7.62201 4.24129C9.09474 4.24129 10.2887 5.4352 10.2887 6.90796C10.2887 8.38069 9.09474 9.57463 7.62201 9.57463Z" fill="white"/>
</svg>
