<svg width="20" height="20" viewBox="0 0 20 20" fill="none" xmlns="http://www.w3.org/2000/svg">
<circle cx="10" cy="10" r="10" fill="url(#paint0_linear_130_17891)"/>
<path d="M10 2C14.416 2 18 5.584 18 10C18 14.416 14.416 18 10 18C5.584 18 2 14.416 2 10C2 5.584 5.584 2 10 2ZM5.21866 12.733C6.39266 14.4855 8.15609 15.6 10.1278 15.6C12.0994 15.6 13.8629 14.4855 15.0369 12.733C13.7508 11.5338 12.025 10.8 10.1278 10.8C8.23057 10.8 6.50476 11.5338 5.21866 12.733ZM10 9.2C11.3255 9.2 12.4 8.12548 12.4 6.8C12.4 5.47452 11.3255 4.4 10 4.4C8.67448 4.4 7.6 5.47452 7.6 6.8C7.6 8.12548 8.67448 9.2 10 9.2Z" fill="white"/>
<defs>
<linearGradient id="paint0_linear_130_17891" x1="-1.15385" y1="-3.125" x2="8.97592" y2="20.7989" gradientUnits="userSpaceOnUse">
<stop stop-color="#FF8C8C"/>
<stop offset="1" stop-color="#E52222"/>
</linearGradient>
</defs>
</svg>
