<svg width="20" height="20" viewBox="0 0 20 20" fill="none" xmlns="http://www.w3.org/2000/svg">
<path d="M9.25925 11.087V12.5362C6.80464 12.5362 4.8148 14.4828 4.8148 16.8841H3.33331C3.33331 13.6824 5.98644 11.087 9.25925 11.087ZM9.25925 10.3623C6.80369 10.3623 4.8148 8.41667 4.8148 6.0145C4.8148 3.61232 6.80369 1.66667 9.25925 1.66667C11.7148 1.66667 13.7037 3.61232 13.7037 6.0145C13.7037 8.41667 11.7148 10.3623 9.25925 10.3623ZM9.25925 8.91305C10.8963 8.91305 12.2222 7.61595 12.2222 6.0145C12.2222 4.41305 10.8963 3.11595 9.25925 3.11595C7.62221 3.11595 6.29628 4.41305 6.29628 6.0145C6.29628 7.61595 7.62221 8.91305 9.25925 8.91305ZM15.7988 16.2109L13.7037 18.3333L11.6086 16.2109C10.4515 15.0388 10.4515 13.1383 11.6086 11.9661C12.7657 10.7939 14.6417 10.7939 15.7988 11.9661C16.9559 13.1383 16.9559 15.0388 15.7988 16.2109ZM14.7331 15.2042C15.3358 14.5936 15.3358 13.5834 14.7331 12.9728C14.1585 12.3907 13.2489 12.3907 12.6743 12.9728C12.0715 13.5834 12.0715 14.5936 12.6743 15.2042L13.7037 16.247L14.7331 15.2042Z" fill="#6541F2"/>
<path fill-rule="evenodd" clip-rule="evenodd" d="M9.50925 10.8371V12.7864H9.25925C6.93751 12.7864 5.0648 14.6262 5.0648 16.8842V17.1342H3.08331V16.8842C3.08331 13.5393 5.85358 10.8371 9.25925 10.8371H9.50925ZM13.7037 18.6894L11.4307 16.3867C10.1774 15.1172 10.1774 13.0602 11.4307 11.7906C12.6857 10.5193 14.7217 10.5193 15.9767 11.7906C17.2299 13.0602 17.2299 15.1172 15.9767 16.3867L13.7037 18.6894ZM14.5552 13.1486C14.0785 12.6657 13.3289 12.6657 12.8522 13.1486C12.3456 13.6618 12.3456 14.5155 12.8522 15.0287L13.7037 15.8913L14.5552 15.0287L14.7331 15.2044L13.7037 16.2472L12.6743 15.2044C12.0715 14.5938 12.0715 13.5836 12.6743 12.973C13.2489 12.3909 14.1585 12.3909 14.7331 12.973C15.3358 13.5836 15.3358 14.5938 14.7331 15.2044L14.5552 15.0287C15.0618 14.5155 15.0618 13.6618 14.5552 13.1486ZM9.00925 11.0922C5.93715 11.2169 3.46904 13.6296 3.33872 16.6342C3.33513 16.7171 3.33331 16.8005 3.33331 16.8842H4.8148C4.8148 14.483 6.80464 12.5364 9.25925 12.5364V11.0871C9.1755 11.0871 9.09215 11.0888 9.00925 11.0922ZM9.25925 10.6125C6.67083 10.6125 4.5648 8.56005 4.5648 6.01465C4.5648 3.46925 6.67083 1.41682 9.25925 1.41682C11.8477 1.41682 13.9537 3.46925 13.9537 6.01465C13.9537 8.56005 11.8477 10.6125 9.25925 10.6125ZM9.25925 8.6632C10.7634 8.6632 11.9722 7.47288 11.9722 6.01465C11.9722 4.55642 10.7634 3.3661 9.25925 3.3661C7.75507 3.3661 6.54628 4.55642 6.54628 6.01465C6.54628 7.47288 7.75507 8.6632 9.25925 8.6632ZM11.6086 16.2111C10.4515 15.0389 10.4515 13.1384 11.6086 11.9662C12.7657 10.7941 14.6417 10.7941 15.7988 11.9662C16.9559 13.1384 16.9559 15.0389 15.7988 16.2111L13.7037 18.3335L11.6086 16.2111ZM4.8148 6.01465C4.8148 8.41682 6.80369 10.3625 9.25925 10.3625C11.7148 10.3625 13.7037 8.41682 13.7037 6.01465C13.7037 3.61248 11.7148 1.66682 9.25925 1.66682C6.80369 1.66682 4.8148 3.61248 4.8148 6.01465ZM12.2222 6.01465C12.2222 7.6161 10.8963 8.9132 9.25925 8.9132C7.62221 8.9132 6.29628 7.6161 6.29628 6.01465C6.29628 4.4132 7.62221 3.1161 9.25925 3.1161C10.8963 3.1161 12.2222 4.4132 12.2222 6.01465Z" fill="#6541F2"/>
</svg>
