<svg width="26" height="26" viewBox="0 0 26 26" fill="none" xmlns="http://www.w3.org/2000/svg">
<rect width="26" height="26" rx="6" fill="#FBE300"/>
<path fill-rule="evenodd" clip-rule="evenodd" d="M4 11.8354C4 8.06032 8.0294 5 13 5C17.9706 5 22 8.06032 22 11.8354C22 15.6105 17.9706 18.6707 13 18.6707C12.4545 18.6707 11.9203 18.6339 11.4015 18.5632C10.8821 18.9157 7.88177 20.9458 7.59862 20.9839C7.59862 20.9839 7.48248 21.0274 7.38374 20.9714C7.285 20.9154 7.30291 20.7685 7.30291 20.7685C7.33268 20.573 8.08072 18.0848 8.21858 17.6268C5.68456 16.4175 4 14.276 4 11.8354ZM7.50477 13.7438C7.50477 14.0072 7.73765 14.2215 8.024 14.2215C8.31036 14.2215 8.54323 14.0072 8.54323 13.7438V10.7725H9.3534C9.63431 10.7725 9.86294 10.5528 9.86294 10.2828C9.86294 10.0128 9.63439 9.79309 9.3534 9.79309H6.6946C6.41369 9.79309 6.18506 10.0128 6.18506 10.2828C6.18506 10.5528 6.41361 10.7725 6.6946 10.7725H7.50477V13.7438ZM12.1449 13.9941C12.1948 14.1303 12.3604 14.215 12.577 14.215C12.6908 14.2151 12.8034 14.1916 12.907 14.146C13.0502 14.0826 13.1877 13.9076 13.0297 13.4348L11.7883 10.2873C11.7006 10.0473 11.4348 9.80051 11.0957 9.79317C10.7575 9.80059 10.4917 10.0473 10.4042 10.2868L9.16224 13.4357C9.00457 13.9075 9.14216 14.0824 9.2853 14.146C9.38889 14.1915 9.50147 14.2151 9.61536 14.215C9.83188 14.215 9.99742 14.1304 10.0472 13.9944L10.3045 13.3456L11.8878 13.3457L12.1449 13.9941ZM11.0961 11.0406L11.6147 12.4598H10.5775L11.0961 11.0406ZM13.3678 13.6901C13.3678 13.9428 13.5909 14.1485 13.8653 14.1485H15.5312C15.8056 14.1485 16.0288 13.9428 16.0288 13.6901C16.0288 13.4373 15.8056 13.2316 15.5312 13.2316H14.4278V10.2932C14.4278 10.0174 14.19 9.79309 13.8978 9.79309C13.6056 9.79309 13.3678 10.0174 13.3678 10.2932V13.6901ZM16.2308 13.7148C16.2308 13.9907 16.4637 14.215 16.75 14.215C16.8877 14.2148 17.0198 14.162 17.1171 14.0682C17.2145 13.9744 17.2693 13.8472 17.2694 13.7146V12.6233L17.4496 12.4498L18.6673 14.0039C18.7155 14.0659 18.7781 14.1162 18.8502 14.1508C18.9222 14.1853 19.0016 14.2031 19.0821 14.2027C19.1948 14.203 19.3046 14.1675 19.3944 14.1018C19.4489 14.0624 19.4948 14.0129 19.5294 13.9563C19.564 13.8997 19.5866 13.837 19.5958 13.7719C19.6055 13.7069 19.6017 13.6406 19.5846 13.577C19.5675 13.5134 19.5374 13.4537 19.4961 13.4014L18.2181 11.7704L19.4013 10.6308C19.4826 10.5524 19.5234 10.4443 19.5159 10.3263C19.5084 10.2094 19.4542 10.0968 19.3632 10.0092C19.2657 9.91537 19.1355 9.86152 19.0059 9.86152C18.8948 9.86152 18.7924 9.90103 18.7179 9.97281L17.2692 11.3682V10.2932C17.2692 10.0174 17.0364 9.79309 16.75 9.79309C16.4637 9.79309 16.2308 10.0174 16.2308 10.2932V13.7148Z" fill="#371D1E"/>
</svg>
