<svg width="20" height="20" viewBox="0 0 20 20" fill="none" xmlns="http://www.w3.org/2000/svg">
<path fill-rule="evenodd" clip-rule="evenodd" d="M13.8522 8.59968C13.8522 11.5005 11.5007 13.8521 8.59984 13.8521C5.69902 13.8521 3.34744 11.5005 3.34744 8.59968C3.34744 5.69886 5.69902 3.34727 8.59984 3.34727C11.5007 3.34727 13.8522 5.69886 13.8522 8.59968ZM12.8722 14.0605C11.6948 14.9829 10.2115 15.5329 8.59984 15.5329C4.77076 15.5329 1.66667 12.4288 1.66667 8.59968C1.66667 4.77059 4.77076 1.6665 8.59984 1.6665C12.4289 1.6665 15.533 4.77059 15.533 8.59968C15.533 10.2114 14.9831 11.6946 14.0606 12.872L18.3333 17.1447L17.1449 18.3332L12.8722 14.0605Z" fill="black"/>
</svg>
