<svg width="24" height="24" viewBox="0 0 24 24" fill="none" xmlns="http://www.w3.org/2000/svg">
<path fill-rule="evenodd" clip-rule="evenodd" d="M16.6227 10.3198C16.6227 13.8008 13.8008 16.6227 10.3198 16.6227C6.83882 16.6227 4.01692 13.8008 4.01692 10.3198C4.01692 6.83882 6.83882 4.01692 10.3198 4.01692C13.8008 4.01692 16.6227 6.83882 16.6227 10.3198ZM15.4466 16.8728C14.0337 17.9797 12.2538 18.6396 10.3198 18.6396C5.72491 18.6396 2 14.9147 2 10.3198C2 5.72491 5.72491 2 10.3198 2C14.9147 2 18.6396 5.72491 18.6396 10.3198C18.6396 12.2538 17.9797 14.0337 16.8728 15.4466L22 20.5738L20.5738 22L15.4466 16.8728Z" fill="white"/>
</svg>
