<svg width="90" height="24" viewBox="0 0 90 24" fill="none" xmlns="http://www.w3.org/2000/svg">
<g clip-path="url(#clip0_228_3583)">
<path d="M21.2219 7.3037C20.3868 7.3037 19.7085 6.65163 19.7085 5.8474V5.22974C19.7085 4.44 20.4014 3.77344 21.2219 3.77344H21.3696C22.1882 3.77344 22.8811 4.44 22.8811 5.22974V5.8474C22.8811 6.65163 22.2028 7.3037 21.3696 7.3037H21.2219Z" fill="white"/>
<path d="M15.0644 22.2018C14.2603 22.2018 13.6076 21.5534 13.6076 20.7564V9.0317C12.6011 10.8322 10.5863 14.4149 10.5863 14.4149C10.0831 15.3043 9.38472 15.7191 8.38553 15.7191C7.38634 15.7191 6.69711 15.3007 6.18293 14.4077C6.18293 14.4077 4.07515 10.6492 3.16895 9.0317V20.7564C3.16895 21.5534 2.5162 22.2018 1.71393 22.2018H1.45319C0.652748 22.2018 -0.00183105 21.5534 -0.00183105 20.7564V5.87276C-0.00183105 4.61751 0.939012 3.77525 2.33387 3.77525C3.24371 3.77525 3.97852 4.20272 4.407 4.97797C4.407 4.97797 7.58873 10.6184 8.38553 12.0349C9.30449 10.4119 12.3659 4.98159 12.3659 4.98159C12.7944 4.20453 13.531 3.77344 14.4427 3.77344C15.8393 3.77344 16.7765 4.6157 16.7765 5.87095V20.7546C16.7765 21.5516 16.1238 22.2 15.3215 22.2H15.0626L15.0644 22.2018Z" fill="white"/>
<path d="M21.2164 22.2014C20.3995 22.2014 19.7085 21.5385 19.7085 20.756V9.83732C19.7085 9.05845 20.3995 8.39551 21.2164 8.39551H21.3732C22.1901 8.39551 22.8811 9.05845 22.8811 9.83732V20.756C22.8811 21.5403 22.1919 22.2014 21.3732 22.2014H21.2164Z" fill="white"/>
<path d="M39.8946 22.323C36.7749 22.323 34.9151 20.6204 34.9151 17.7748V17.4886C34.9151 13.6631 37.8726 13.0943 39.6357 13.0943H43.297C43.2678 11.6181 42.9214 11.1852 41.0561 11.1852H37.94L37.2745 11.1816C36.4048 11.1816 35.7702 10.6128 35.7702 9.82672V9.6963C35.7702 9.01162 36.1841 8.27441 37.342 8.27441H41.0561C44.6499 8.27441 46.4732 9.97705 46.4732 13.3298V18.2149C46.4732 20.6711 44.5624 22.3248 41.718 22.3248H39.8928L39.8946 22.323ZM39.612 15.9961C38.5855 15.9961 38.0841 16.3801 38.0841 17.1734V17.9668C38.0841 18.762 38.2208 19.4195 39.8928 19.4195H42.0899C42.6771 19.4195 43.2988 19.0119 43.2988 18.253V15.9979H39.612V15.9961Z" fill="white"/>
<path d="M54.5397 8.27441C57.9931 8.27441 59.9714 9.97524 59.9714 12.8226V13.1088C59.9714 16.9289 57.014 17.5013 55.2508 17.5013H51.5914C51.6169 18.9793 51.967 19.414 53.8322 19.414H58.108C58.9813 19.4158 59.614 19.9828 59.614 20.7707V20.8993C59.614 21.584 59.202 22.323 58.0442 22.323H53.8341C50.2384 22.323 48.4151 20.6204 48.4151 17.2658V13.0635C48.4151 10.39 50.4627 8.27441 53.608 8.27441H54.5415H54.5397ZM55.2709 14.5977C56.301 14.5977 56.8006 13.9366 56.8006 13.1414V12.8679C56.8006 11.9134 56.3065 11.1743 54.6363 11.1743H53.3819C52.2423 11.1743 51.5877 11.9134 51.5877 12.8806V14.5977H55.2709Z" fill="white"/>
<path d="M27.3136 22.2014C26.4986 22.2014 25.8076 21.5384 25.8076 20.756V12.8151C25.8076 9.80834 27.3975 8.2832 30.8363 8.2832H32.625C34.2569 8.2832 34.3408 9.41166 34.3408 9.63807V9.81377C34.3408 10.042 34.2569 11.1886 32.625 11.1886H30.6668C29.498 11.1886 28.9783 11.7881 28.9783 13.1303V20.756C28.9783 21.5403 28.2855 22.2014 27.4704 22.2014H27.3155H27.3136Z" fill="white"/>
<path d="M76.8136 0C65.4451 0 63.6309 5.376 63.6309 12.0036C63.6309 16.5845 64.5006 20.5694 68.8 22.589V6.92468C68.8 5.90672 69.2686 4.87789 70.802 4.87789C71.8705 4.87789 72.3373 4.83623 73.1341 5.86506L80.8851 15.9269V6.68196C80.8851 5.31079 81.454 4.87608 82.5516 4.87608H83.2792C84.1671 4.87608 84.8345 5.50098 84.8345 6.68196V22.589C89.1321 20.5675 90 16.5863 90 12.0036C90 5.376 88.1912 0 76.8136 0Z" fill="white"/>
<path d="M72.5287 10.8065V23.6832C73.7814 23.8897 75.1981 24.0002 76.8154 24.0002C78.8794 24.0002 80.6225 23.8226 82.1031 23.4912L72.5306 10.8047L72.5287 10.8065Z" fill="white"/>
</g>
<defs>
<clipPath id="clip0_228_3583">
<rect width="90" height="24" fill="white"/>
</clipPath>
</defs>
</svg>
