<svg width="60" height="16" viewBox="0 0 60 16" fill="none" xmlns="http://www.w3.org/2000/svg">
<g clip-path="url(#clip0_1413_17208)">
<path d="M14.1476 4.86865C13.5909 4.86865 13.1387 4.43393 13.1387 3.89778V3.486C13.1387 2.95951 13.6006 2.51514 14.1476 2.51514H14.246C14.7918 2.51514 15.2537 2.95951 15.2537 3.486V3.89778C15.2537 4.43393 14.8016 4.86865 14.246 4.86865H14.1476Z" fill="#1D51A1"/>
<path d="M10.0432 14.8007C9.50713 14.8007 9.07196 14.3684 9.07196 13.8371V6.02065C8.40097 7.22095 7.05778 9.60948 7.05778 9.60948C6.72228 10.2024 6.25672 10.4789 5.5906 10.4789C4.92447 10.4789 4.46499 10.2 4.1222 9.60465C4.1222 9.60465 2.71701 7.09899 2.11288 6.02065V13.8371C2.11288 14.3684 1.67771 14.8007 1.14286 14.8007H0.96904C0.435409 14.8007 -0.000976562 14.3684 -0.000976562 13.8371V3.91468C-0.000976562 3.07785 0.626252 2.51634 1.55615 2.51634C2.16272 2.51634 2.65259 2.80133 2.93825 3.31816C2.93825 3.31816 5.0594 7.07846 5.5906 8.02276C6.20324 6.9408 8.24416 3.32057 8.24416 3.32057C8.52982 2.80253 9.0209 2.51514 9.62868 2.51514C10.5598 2.51514 11.1846 3.07665 11.1846 3.91348V13.8359C11.1846 14.3672 10.7494 14.7995 10.2146 14.7995H10.042L10.0432 14.8007Z" fill="#1D51A1"/>
<path d="M14.1439 14.8011C13.5994 14.8011 13.1387 14.3591 13.1387 13.8375V6.55838C13.1387 6.03913 13.5994 5.59717 14.1439 5.59717H14.2485C14.793 5.59717 15.2537 6.03913 15.2537 6.55838V13.8375C15.2537 14.3603 14.7943 14.8011 14.2485 14.8011H14.1439Z" fill="#1D51A1"/>
<path d="M26.5961 14.8818C24.5162 14.8818 23.2764 13.7468 23.2764 11.8497V11.6589C23.2764 9.10857 25.248 8.7294 26.4234 8.7294H28.8643C28.8448 7.74525 28.6139 7.45664 27.3704 7.45664H25.293L24.8493 7.45423C24.2695 7.45423 23.8465 7.07506 23.8465 6.55098V6.46404C23.8465 6.00758 24.1224 5.51611 24.8943 5.51611H27.3704C29.7662 5.51611 30.9818 6.65121 30.9818 8.88638V12.1431C30.9818 13.7806 29.7079 14.8831 27.8116 14.8831H26.5948L26.5961 14.8818ZM26.4076 10.6639C25.7233 10.6639 25.389 10.9199 25.389 11.4488V11.9777C25.389 12.5078 25.4802 12.9462 26.5948 12.9462H28.0596C28.451 12.9462 28.8655 12.6745 28.8655 12.1685V10.6651H26.4076V10.6639Z" fill="#1D51A1"/>
<path d="M36.3594 5.51611C38.6617 5.51611 39.9806 6.65 39.9806 8.54826V8.73906C39.9806 11.2858 38.0089 11.6674 36.8335 11.6674H34.3939C34.4109 12.6527 34.6443 12.9425 35.8878 12.9425H38.7383C39.3205 12.9437 39.7423 13.3217 39.7423 13.847V13.9327C39.7423 14.3892 39.4676 14.8818 38.6957 14.8818H35.889C33.4919 14.8818 32.2764 13.7468 32.2764 11.5104V8.70887C32.2764 6.92653 33.6414 5.51611 35.7383 5.51611H36.3606H36.3594ZM36.8469 9.73166C37.5337 9.73166 37.8667 9.29091 37.8667 8.76079V8.57845C37.8667 7.94208 37.5373 7.4494 36.4239 7.4494H35.5875C34.8278 7.4494 34.3914 7.94208 34.3914 8.58691V9.73166H36.8469Z" fill="#1D51A1"/>
<path d="M18.2091 14.8008C17.6658 14.8008 17.2051 14.3588 17.2051 13.8371V8.54326C17.2051 6.53873 18.265 5.52197 20.5576 5.52197H21.7501C22.838 5.52197 22.8939 6.27427 22.8939 6.42522V6.54235C22.8939 6.6945 22.838 7.45888 21.7501 7.45888H20.4445C19.6654 7.45888 19.3189 7.85858 19.3189 8.75337V13.8371C19.3189 14.36 18.857 14.8008 18.3137 14.8008H18.2103H18.2091Z" fill="#1D51A1"/>
<path d="M51.2094 0C43.6304 0 42.4209 3.584 42.4209 8.00241C42.4209 11.0563 43.0007 13.7129 45.867 15.0593V4.61645C45.867 3.93781 46.1794 3.25192 47.2017 3.25192C47.914 3.25192 48.2252 3.22415 48.7564 3.91004L53.9237 10.618V4.45464C53.9237 3.54053 54.303 3.25072 55.0348 3.25072H55.5198C56.1117 3.25072 56.5566 3.66732 56.5566 4.45464V15.0593C59.4217 13.7117 60.0003 11.0575 60.0003 8.00241C60.0003 3.584 58.7945 0 51.2094 0Z" fill="#1D51A1"/>
<path d="M48.3525 7.20433V15.7888C49.1876 15.9264 50.1321 16.0001 51.2103 16.0001C52.5863 16.0001 53.7484 15.8818 54.7354 15.6608L48.3538 7.20312L48.3525 7.20433Z" fill="#1D51A1"/>
</g>
<defs>
<clipPath id="clip0_1413_17208">
<rect width="60" height="16" fill="white"/>
</clipPath>
</defs>
</svg>
