<svg xmlns="http://www.w3.org/2000/svg">
<symbol id="icon-my-map" viewBox="0 0 20 20" fill="none">
	<path d="M2.27413 11.8002C2.02993 10.6463 2.03982 9.47866 2.27483 8.36706C3.19977 8.476 4.00709 8.16966 4.27107 7.53234C4.53507 6.89501 4.1808 6.10755 3.44976 5.53054C4.06962 4.57833 4.88829 3.74567 5.87682 3.10249C6.45387 3.83391 7.24157 4.18842 7.87905 3.92436C8.51653 3.66031 8.82287 2.85265 8.71369 1.92742C9.86745 1.68322 11.0351 1.69311 12.1468 1.92811C12.0379 2.85305 12.3442 3.66037 12.9815 3.92436C13.6188 4.18836 14.4063 3.83408 14.9833 3.10305C15.9355 3.72291 16.7682 4.54158 17.4114 5.5301C16.6799 6.10716 16.3254 6.89486 16.5894 7.53234C16.8535 8.16982 17.6612 8.47616 18.5864 8.36698C18.8306 9.52075 18.8207 10.6884 18.5857 11.8001C17.6608 11.6912 16.8534 11.9975 16.5894 12.6347C16.3254 13.2721 16.6798 14.0596 17.4108 14.6366C16.7909 15.5887 15.9723 16.4214 14.9837 17.0647C14.4067 16.3332 13.6189 15.9787 12.9815 16.2427C12.344 16.5068 12.0377 17.3145 12.1469 18.2397C10.993 18.4839 9.82537 18.474 8.71377 18.239C8.8227 17.3141 8.51637 16.5067 7.87905 16.2427C7.24172 15.9787 6.45427 16.333 5.87725 17.0641C4.92504 16.4442 4.09238 15.6256 3.44921 14.637C4.18062 14.06 4.53513 13.2722 4.27107 12.6347C4.00702 11.9973 3.19936 11.691 2.27413 11.8002ZM3.76366 10.2587C4.68017 10.5124 5.43652 11.0932 5.81087 11.997C6.18523 12.9007 6.06109 13.8462 5.59237 14.6737C5.67284 14.7584 5.75552 14.8411 5.84031 14.9214C6.6677 14.4527 7.61313 14.3287 8.51686 14.703C9.42062 15.0773 10.0014 15.8336 10.255 16.75C10.3718 16.7532 10.4886 16.7532 10.6054 16.7502C10.8591 15.8337 11.4399 15.0773 12.3437 14.703C13.2474 14.3286 14.1929 14.4527 15.0204 14.9215C15.1052 14.841 15.1878 14.7583 15.2681 14.6735C14.7994 13.8462 14.6754 12.9007 15.0497 11.997C15.424 11.0932 16.1803 10.5125 17.0967 10.2588C17.0999 10.1421 17.0999 10.0252 17.0969 9.90833C16.1804 9.65475 15.424 9.07391 15.0497 8.17014C14.6753 7.26636 14.7994 6.32086 15.2682 5.49345C15.1877 5.40867 15.105 5.32608 15.0202 5.24574C14.1929 5.71439 13.2474 5.8385 12.3437 5.46416C11.4399 5.08983 10.8592 4.33355 10.6055 3.41711C10.4888 3.41396 10.3719 3.41391 10.255 3.41695C10.0014 4.33346 9.42062 5.08981 8.51686 5.46416C7.61307 5.83852 6.66758 5.71437 5.84016 5.24566C5.75538 5.32613 5.67279 5.40881 5.59246 5.4936C6.0611 6.32099 6.18521 7.26642 5.81087 8.17014C5.43654 9.07383 4.68026 9.65466 3.76382 9.90833C3.76067 10.0251 3.76062 10.1419 3.76366 10.2587ZM10.4303 12.5836C9.04953 12.5836 7.93027 11.4642 7.93027 10.0836C7.93027 8.70283 9.04953 7.58356 10.4303 7.58356C11.8109 7.58356 12.9303 8.70283 12.9303 10.0836C12.9303 11.4642 11.8109 12.5836 10.4303 12.5836ZM10.4303 10.9169C10.8905 10.9169 11.2636 10.5438 11.2636 10.0836C11.2636 9.62333 10.8905 9.25025 10.4303 9.25025C9.97003 9.25025 9.59695 9.62333 9.59695 10.0836C9.59695 10.5438 9.97003 10.9169 10.4303 10.9169Z" fill="currentColor"/>
</symbol>

<symbol id="icon-location" viewBox="0 0 20 20" fill="none">
	<path d="M9.16671 4.22639C6.61197 4.59182 4.59121 6.61258 4.22578 9.16732H5.83337V10.834H4.22578C4.59121 13.3887 6.61197 15.4095 9.16671 15.7749V14.1673H10.8334V15.7749C13.3881 15.4095 15.4089 13.3887 15.7743 10.834H14.1667V9.16732H15.7743C15.4089 6.61258 13.3881 4.59182 10.8334 4.22639V5.83398H9.16671V4.22639ZM2.54582 9.16732C2.93011 5.69097 5.69036 2.93072 9.16671 2.54643V0.833984H10.8334V2.54643C14.3097 2.93072 17.07 5.69097 17.4543 9.16732H19.1667V10.834H17.4543C17.07 14.3103 14.3097 17.0706 10.8334 17.4549V19.1673H9.16671V17.4549C5.69036 17.0706 2.93011 14.3103 2.54582 10.834H0.833374V9.16732H2.54582ZM11.6667 10.0007C11.6667 10.9212 10.9205 11.6673 10 11.6673C9.07954 11.6673 8.33337 10.9212 8.33337 10.0007C8.33337 9.08015 9.07954 8.33398 10 8.33398C10.9205 8.33398 11.6667 9.08015 11.6667 10.0007Z" fill="currentColor"/>
</symbol>

<symbol id="icon-map-line" viewBox="0 0 20 20" fill="none">
	<path d="M7.70709 2.44371C7.70709 2.01447 8.05505 1.6665 8.48429 1.6665H11.5045C11.9337 1.6665 12.2817 2.01447 12.2817 2.44371C12.2817 2.87294 11.9337 3.22091 11.5045 3.22091H8.48429C8.05505 3.22091 7.70709 2.87294 7.70709 2.44371Z" fill="currentColor"/>
	<path d="M6.24092 2.43135C6.25392 2.86039 5.91666 3.21874 5.48762 3.23174C4.74772 3.25416 4.4395 3.31278 4.21994 3.4257L4.21208 3.42974C3.87886 3.59635 3.60164 3.87446 3.41356 4.23312C3.30137 4.45254 3.24306 4.76117 3.22071 5.49865C3.20771 5.92769 2.84936 6.26495 2.42032 6.25195C1.99128 6.23895 1.65402 5.8806 1.66702 5.45157C1.68934 4.71491 1.74258 4.08351 2.03236 3.52006L2.03472 3.51546C2.36054 2.89217 2.86453 2.36666 3.51306 2.04132C4.07549 1.75335 4.70564 1.70032 5.44054 1.67805C5.86958 1.66505 6.22792 2.00231 6.24092 2.43135Z" fill="currentColor"/>
	<path d="M13.7479 2.43135C13.7609 2.00231 14.1192 1.66505 14.5483 1.67805C15.2832 1.70032 15.9133 1.75335 16.4757 2.04132C17.1243 2.36666 17.6282 2.89217 17.9541 3.51547L17.9564 3.52005C18.2462 4.08351 18.2994 4.71491 18.3218 5.45157C18.3348 5.8806 17.9975 6.23895 17.5685 6.25195C17.1394 6.26495 16.7811 5.92769 16.7681 5.49865C16.7457 4.76117 16.6874 4.45255 16.5752 4.23312C16.3872 3.87446 16.11 3.59631 15.7767 3.42969L15.7688 3.42574C15.5493 3.31282 15.2411 3.25416 14.5012 3.23174C14.0721 3.21874 13.7349 2.86039 13.7479 2.43135Z" fill="currentColor"/>
	<path d="M2.44386 7.70693C2.8731 7.70693 3.22107 8.0549 3.22107 8.48413V11.5043C3.22107 11.9336 2.8731 12.2815 2.44386 12.2815C2.01463 12.2815 1.66666 11.9336 1.66666 11.5043V8.48413C1.66666 8.0549 2.01463 7.70693 2.44386 7.70693Z" fill="currentColor"/>
	<path d="M17.5449 7.70693C17.9742 7.70693 18.3221 8.0549 18.3221 8.48413V11.5043C18.3221 11.9336 17.9742 12.2815 17.5449 12.2815C17.1157 12.2815 16.7677 11.9336 16.7677 11.5043V8.48413C16.7677 8.0549 17.1157 7.70693 17.5449 7.70693Z" fill="currentColor"/>
	<path d="M17.5797 13.7477C18.0087 13.7607 18.346 14.1191 18.333 14.5481C18.3106 15.2848 18.2574 15.9162 17.9676 16.4796L17.9652 16.4842C17.6394 17.1075 17.1354 17.6331 16.4868 17.9584C15.9244 18.2463 15.2943 18.2994 14.5594 18.3216C14.1304 18.3346 13.7721 17.9974 13.7591 17.5683C13.7461 17.1393 14.0833 16.7809 14.5124 16.7679C15.2523 16.7455 15.5605 16.6869 15.78 16.574L15.7879 16.5699C16.1211 16.4033 16.3983 16.1252 16.5864 15.7665C16.6986 15.5471 16.7569 15.2385 16.7793 14.501C16.7923 14.072 17.1506 13.7347 17.5797 13.7477Z" fill="currentColor"/>
	<path d="M2.42032 13.7589C2.84936 13.7459 3.20771 14.0832 3.22071 14.5122C3.24313 15.2521 3.30175 15.5603 3.41467 15.7799L3.41871 15.7877C3.58532 16.121 3.86343 16.3982 4.2221 16.5863C4.44152 16.6985 4.75014 16.7568 5.48762 16.7791C5.91666 16.7921 6.25392 17.1505 6.24092 17.5795C6.22792 18.0085 5.86958 18.3458 5.44054 18.3328C4.70389 18.3105 4.07249 18.2572 3.50903 17.9675L3.50444 17.9651C2.88115 17.6393 2.35563 17.1353 2.03029 16.4868C1.74233 15.9243 1.68929 15.2942 1.66702 14.5593C1.65402 14.1302 1.99128 13.7719 2.42032 13.7589Z" fill="currentColor"/>
	<path d="M7.70709 17.5448C7.70709 17.1155 8.05505 16.7676 8.48429 16.7676H11.5045C11.9337 16.7676 12.2817 17.1155 12.2817 17.5448C12.2817 17.974 11.9337 18.322 11.5045 18.322H8.48429C8.05505 18.322 7.70709 17.974 7.70709 17.5448Z" fill="currentColor"/>
	<path d="M5 14.8994L14.8995 4.99992" stroke="currentColor" stroke-width="1.6" stroke-linecap="round" stroke-dasharray="3 3"/>
</symbol>

<symbol id="icon-blankmap" viewBox="0 0 20 20" fill="none">
	<path fill-rule="evenodd" clip-rule="evenodd" d="M16.6666 3.33268H8.56467L15.1615 16.666H16.6666V3.33268ZM3.33329 3.33268H6.70517L9.99086 9.97363L3.33329 13.5585V3.33268ZM3.33329 15.4514V16.666H13.302L10.7304 11.4684L3.33329 15.4514ZM3.33329 1.66602C2.41282 1.66602 1.66663 2.41221 1.66663 3.33268V16.666C1.66663 17.5865 2.41282 18.3327 3.33329 18.3327H16.6666C17.5871 18.3327 18.3333 17.5865 18.3333 16.666V3.33268C18.3333 2.41221 17.5871 1.66602 16.6666 1.66602H3.33329Z" fill="currentColor"/>
</symbol>

<symbol id="icon-sns-share" viewBox="0 0 20 20" fill="none">
	<path d="M10.9335 14.1857L7.43437 12.277C6.82608 12.9271 5.96047 13.3333 4.99996 13.3333C3.15901 13.3333 1.66663 11.8409 1.66663 9.99999C1.66663 8.15904 3.15901 6.66666 4.99996 6.66666C5.96042 6.66666 6.826 7.07287 7.43428 7.72287L10.9335 5.81426C10.868 5.55366 10.8333 5.28088 10.8333 4.99999C10.8333 3.15904 12.3257 1.66666 14.1666 1.66666C16.0075 1.66666 17.5 3.15904 17.5 4.99999C17.5 6.84094 16.0075 8.33332 14.1666 8.33332C13.2061 8.33332 12.3405 7.92708 11.7322 7.27704L8.2331 9.18566C8.29854 9.44624 8.33329 9.71907 8.33329 9.99999C8.33329 10.2809 8.29855 10.5537 8.23313 10.8142L11.7323 12.7229C12.3405 12.0729 13.2061 11.6667 14.1666 11.6667C16.0075 11.6667 17.5 13.1591 17.5 15C17.5 16.8409 16.0075 18.3333 14.1666 18.3333C12.3257 18.3333 10.8333 16.8409 10.8333 15C10.8333 14.7191 10.868 14.4462 10.9335 14.1857ZM4.99996 11.6667C5.92043 11.6667 6.66663 10.9205 6.66663 9.99999C6.66663 9.07949 5.92043 8.33332 4.99996 8.33332C4.07948 8.33332 3.33329 9.07949 3.33329 9.99999C3.33329 10.9205 4.07948 11.6667 4.99996 11.6667ZM14.1666 6.66666C15.0871 6.66666 15.8333 5.92046 15.8333 4.99999C15.8333 4.07951 15.0871 3.33332 14.1666 3.33332C13.2461 3.33332 12.5 4.07951 12.5 4.99999C12.5 5.92046 13.2461 6.66666 14.1666 6.66666ZM14.1666 16.6667C15.0871 16.6667 15.8333 15.9205 15.8333 15C15.8333 14.0795 15.0871 13.3333 14.1666 13.3333C13.2461 13.3333 12.5 14.0795 12.5 15C12.5 15.9205 13.2461 16.6667 14.1666 16.6667Z" fill="currentColor"/>
</symbol>

<symbol id="icon-ai-class" viewBox="0 0 20 20" fill="none">
	<path d="M10.3728 3.77778H18.1C18.5971 3.77778 19 4.17575 19 4.66667V17.1111C19 17.602 18.5971 18 18.1 18H1.9C1.40295 18 1 17.602 1 17.1111V2.88889C1 2.39797 1.40295 2 1.9 2H8.57278L10.3728 3.77778ZM2.8 3.77778V16.2222H17.2V5.55556H9.62722L7.82721 3.77778H2.8Z" fill="currentColor"/>
	<path fill-rule="evenodd" clip-rule="evenodd" d="M10.4106 7.24408C10.736 6.91864 11.2637 6.91864 11.5891 7.24408L14.0891 9.74408C14.4145 10.0695 14.4145 10.5972 14.0891 10.9226L11.5891 13.4226C11.2637 13.748 10.736 13.748 10.4106 13.4226C10.0851 13.0972 10.0851 12.5695 10.4106 12.2441L12.3213 10.3333L10.4106 8.42259C10.0851 8.09715 10.0851 7.56951 10.4106 7.24408Z" fill="currentColor"/>
	<path fill-rule="evenodd" clip-rule="evenodd" d="M6 12.8333C6 10.9924 7.49238 9.5 9.33333 9.5H12.6667C13.1269 9.5 13.5 9.8731 13.5 10.3333C13.5 10.7936 13.1269 11.1667 12.6667 11.1667H9.33333C8.41286 11.1667 7.66667 11.9129 7.66667 12.8333V14.5C7.66667 14.9602 7.29357 15.3333 6.83333 15.3333C6.3731 15.3333 6 14.9602 6 14.5V12.8333Z" fill="currentColor"/>
</symbol>

<symbol id="icon-print" viewBox="0 0 20 20" fill="none">
	<path d="M14.1666 1.66666C14.6269 1.66666 15 2.03976 15 2.49999V5.83332H17.5C17.9602 5.83332 18.3333 6.20642 18.3333 6.66666V15C18.3333 15.4602 17.9602 15.8333 17.5 15.8333H15V17.5C15 17.9602 14.6269 18.3333 14.1666 18.3333H5.83329C5.37306 18.3333 4.99996 17.9602 4.99996 17.5V15.8333H2.49996C2.03973 15.8333 1.66663 15.4602 1.66663 15V6.66666C1.66663 6.20642 2.03973 5.83332 2.49996 5.83332H4.99996V2.49999C4.99996 2.03976 5.37306 1.66666 5.83329 1.66666H14.1666ZM13.3333 14.1667H6.66663V16.6667H13.3333V14.1667ZM16.6666 7.49999H3.33329V14.1667H4.99996V13.3333C4.99996 12.8731 5.37306 12.5 5.83329 12.5H14.1666C14.6269 12.5 15 12.8731 15 13.3333V14.1667H16.6666V7.49999ZM6.66663 8.33332V9.99999H4.16663V8.33332H6.66663ZM13.3333 3.33332H6.66663V5.83332H13.3333V3.33332Z" fill="currentColor"/>
</symbol>

<symbol id="icon-distance" viewBox="0 0 20 20" fill="none">
	<path d="M5.28599 11.4399L2.92896 13.797L5.87524 16.7433L17.0711 5.54742L14.1248 2.60114L12.357 4.36891L13.5355 5.54742L12.357 6.72593L11.1785 5.54742L9.4108 7.31518L11.1785 9.08295L10 10.2615L8.23226 8.4937L6.4645 10.2615L7.643 11.4399L6.4645 12.6185L5.28599 11.4399ZM14.714 0.833376L18.8389 4.95817C19.1643 5.2836 19.1643 5.81123 18.8389 6.13668L6.4645 18.511C6.13906 18.8365 5.61142 18.8365 5.28599 18.511L1.1612 14.3863C0.835754 14.0608 0.835754 13.5332 1.1612 13.2078L13.5355 0.833376C13.861 0.507934 14.3886 0.507934 14.714 0.833376Z" fill="currentColor"/>
</symbol>

<symbol id="icon-panorama" viewBox="0 0 20 20" fill="none">
	<path fill-rule="evenodd" clip-rule="evenodd" d="M13.5355 11.0355L10 14.5711L6.46451 11.0355C4.51188 9.08293 4.51188 5.9171 6.46451 3.96448C8.41712 2.01185 11.583 2.01185 13.5355 3.96448C15.4882 5.9171 15.4882 9.08293 13.5355 11.0355ZM10 16.9281L14.7141 12.2141C17.3175 9.61059 17.3175 5.38946 14.7141 2.78597C12.1106 0.182468 7.88949 0.182468 5.286 2.78597C2.6825 5.38946 2.6825 9.61059 5.286 12.2141L10 16.9281ZM15.8334 19.1667V17.5H4.16671V19.1667H15.8334ZM11.7334 7.50001C11.7334 8.4573 10.9573 9.23334 10 9.23334C9.04275 9.23334 8.26671 8.4573 8.26671 7.50001C8.26671 6.54272 9.04275 5.76668 10 5.76668C10.9573 5.76668 11.7334 6.54272 11.7334 7.50001ZM13.3334 7.50001C13.3334 9.34096 11.841 10.8333 10 10.8333C8.15909 10.8333 6.66671 9.34096 6.66671 7.50001C6.66671 5.65906 8.15909 4.16668 10 4.16668C11.841 4.16668 13.3334 5.65906 13.3334 7.50001Z" fill="currentColor"/>
</symbol>

<symbol id="icon-satellite" viewBox="0 0 20 20" fill="none">
	<path fill-rule="evenodd" clip-rule="evenodd" d="M15.2031 17.4638C15.3259 17.3691 15.4838 17.2135 15.769 16.9282L16.9265 15.7707C17.2123 15.485 17.3682 15.3269 17.4629 15.2039C17.3684 15.081 17.2126 14.9228 16.9274 14.6376L15.7712 13.4814C15.4852 13.1958 15.3271 13.0401 15.204 12.9453C15.0809 13.04 14.9225 13.1959 14.6367 13.4817L13.4805 14.6355C13.1953 14.9211 13.039 15.0799 12.9445 15.203C13.0392 15.326 13.1951 15.4841 13.4809 15.7699L14.6359 16.9274C14.9214 17.2129 15.0801 17.3692 15.2031 17.4638ZM16.2096 18.7922C15.9568 18.9852 15.6282 19.1675 15.2033 19.1675C14.7785 19.1675 14.4498 18.9854 14.1968 18.7924C13.9729 18.6216 13.7339 18.3826 13.4892 18.1378C13.4786 18.1272 13.468 18.1165 13.4574 18.1059L12.3024 16.9484C12.291 16.9371 12.2793 16.9253 12.268 16.914C12.0243 16.6704 11.7863 16.4326 11.6162 16.2098C11.4231 15.9569 11.2408 15.6283 11.2408 15.2033C11.2408 14.7786 11.4229 14.4499 11.6156 14.1971C11.7859 13.9736 12.0241 13.7351 12.268 13.4909C12.2753 13.4837 12.2825 13.4764 12.2898 13.4692L11.5958 12.7752L11.423 12.9479C11.414 12.9569 11.4048 12.9662 11.3958 12.9752C11.1704 13.201 10.9463 13.4256 10.7352 13.5865C10.4962 13.7688 10.1798 13.945 9.76912 13.945C9.35786 13.945 9.04126 13.7684 8.80227 13.5862C8.60089 13.4326 8.38753 13.2211 8.17287 13.0064L7.61936 13.5599C7.77268 13.7898 7.90359 14.0347 8.00987 14.2912C8.22351 14.807 8.33348 15.3597 8.33348 15.9179C8.33348 16.4761 8.22351 17.0288 8.00987 17.5445C7.79622 18.0603 7.48307 18.5288 7.08831 18.9235C6.76286 19.2488 6.23528 19.2488 5.90987 18.9234L1.07737 14.0909C0.751961 13.7655 0.751928 13.2379 1.0773 12.9125C1.47196 12.5177 1.94052 12.2046 2.45622 11.9909C2.97193 11.7773 3.52467 11.6673 4.08288 11.6673C4.64108 11.6673 5.19382 11.7773 5.70952 11.9909C5.96606 12.0972 6.21094 12.2281 6.44085 12.3814L6.99389 11.8284C6.77831 11.6131 6.56631 11.3994 6.4124 11.1974C6.22992 10.9579 6.05413 10.6415 6.05413 10.2308C6.05413 9.8195 6.23111 9.50298 6.41307 9.26449C6.57302 9.05486 6.79591 8.83207 7.01983 8.60825C7.0301 8.59799 7.04037 8.58773 7.05063 8.57746L7.22434 8.40371L6.53121 7.71058C6.52436 7.71742 6.51752 7.72427 6.51068 7.73111C6.26597 7.97592 6.02705 8.21494 5.80313 8.38572C5.55012 8.57869 5.22139 8.76081 4.79663 8.76081C4.3717 8.76081 4.04312 8.57854 3.79041 8.38572C3.56812 8.21612 3.33066 7.9789 3.08761 7.7361C3.07575 7.72425 3.06388 7.71239 3.05199 7.70052L1.86298 6.51153C1.61818 6.26682 1.37916 6.0279 1.20839 5.80399C1.01542 5.55098 0.833292 5.22225 0.833292 4.79748C0.833292 4.37249 1.01562 4.04385 1.20867 3.79102C1.37877 3.56825 1.61676 3.33038 1.86044 3.08681C1.87191 3.07535 1.88338 3.06388 1.89487 3.05239L3.05237 1.89489C3.06384 1.88342 3.0753 1.87195 3.08675 1.8605C3.33033 1.6168 3.56822 1.3788 3.791 1.20869C4.04383 1.01564 4.37247 0.833315 4.79746 0.833315C5.22222 0.833315 5.55095 1.01544 5.80397 1.20841C6.02789 1.37919 6.26682 1.61823 6.51154 1.86304L7.69755 3.05322C7.70889 3.06456 7.72062 3.07629 7.73194 3.08761C7.97564 3.33119 8.21364 3.56907 8.38374 3.79185C8.5768 4.04468 8.75912 4.37332 8.75912 4.79831C8.75912 5.22301 8.57705 5.55168 8.38432 5.80458C8.21404 6.02801 7.9758 6.26651 7.73188 6.51069C7.72464 6.51795 7.71738 6.52521 7.71013 6.53247L8.40271 7.22506L10.5512 5.07608C10.8354 4.78369 11.1748 4.55041 11.5496 4.3897C11.9267 4.22802 12.3322 4.14302 12.7425 4.13965C13.1527 4.13627 13.5596 4.21459 13.9393 4.37004C14.319 4.52549 14.6639 4.75495 14.954 5.04507C15.2442 5.33518 15.4736 5.68014 15.6291 6.05984C15.7845 6.43953 15.8628 6.84637 15.8595 7.25664C15.8561 7.66691 15.7711 8.07241 15.6094 8.44949C15.4487 8.82432 15.2154 9.16363 14.9231 9.44789L12.7743 11.5966L13.4695 12.2919C13.4764 12.285 13.4832 12.2782 13.4901 12.2714C13.7348 12.0266 13.9737 11.7875 14.1976 11.6167C14.4506 11.4238 14.7794 11.2416 15.2041 11.2416C15.6291 11.2416 15.9576 11.4239 16.2103 11.6167C16.4326 11.7863 16.6701 12.0236 16.9131 12.2664C16.925 12.2782 16.9369 12.2901 16.9488 12.3019L18.1059 13.4591C18.1165 13.4697 18.1271 13.4803 18.1377 13.4909C18.3821 13.7352 18.621 13.974 18.7917 14.1978C18.9846 14.4507 19.1666 14.7794 19.1666 15.2041C19.1666 15.6291 18.9843 15.9578 18.7912 16.2106C18.6211 16.4334 18.3831 16.6713 18.1394 16.9148C18.128 16.9263 18.1165 16.9378 18.105 16.9492L16.9475 18.1067C16.9361 18.1182 16.9246 18.1297 16.9132 18.1411C16.67 18.3844 16.4323 18.6222 16.2096 18.7922ZM6.5421 5.34345C6.81327 5.07173 6.96335 4.91846 7.05547 4.7986C6.9607 4.67565 6.80479 4.5175 6.51904 4.23174L6.51797 4.23067L5.36487 3.0734C5.07939 2.78793 4.92065 2.63165 4.79767 2.53703C4.67474 2.6318 4.51659 2.7877 4.23088 3.0734L3.07338 4.2309C2.78768 4.51661 2.63177 4.67476 2.53701 4.7977C2.63167 4.92073 2.78765 5.07916 3.07338 5.36489L4.79677 7.05715M6.5421 5.34345C6.53459 5.35043 6.52718 5.35758 6.51987 5.36489L5.36404 6.52073C5.07825 6.80651 4.91981 6.9625 4.79677 7.05715M6.40158 17.0581C6.42601 17.0084 6.44886 16.9579 6.47011 16.9066C6.59997 16.5932 6.66681 16.2572 6.66681 15.9179C6.66681 15.5786 6.59997 15.2426 6.47011 14.9291C6.34024 14.6157 6.1499 14.3309 5.90994 14.091C5.67005 13.851 5.38509 13.6605 5.07162 13.5307C4.75816 13.4008 4.42218 13.334 4.08288 13.334C3.74357 13.334 3.40759 13.4008 3.09413 13.5307C3.04286 13.5519 2.99235 13.5748 2.94269 13.5992L6.40158 17.0581ZM9.76895 12.2258C9.8728 12.1396 10.011 12.0033 10.2435 11.7704L13.749 8.26489L13.7588 8.25528C13.8947 8.12378 14.0031 7.96654 14.0776 7.79274C14.1521 7.61893 14.1913 7.43203 14.1929 7.24293C14.1944 7.05383 14.1583 6.86631 14.0867 6.6913C14.015 6.51629 13.9092 6.3573 13.7755 6.22358C13.6418 6.08986 13.4828 5.9841 13.3078 5.91245C13.1328 5.8408 12.9453 5.8047 12.7562 5.80626C12.5671 5.80781 12.3802 5.84699 12.2064 5.92151C12.0326 5.99603 11.8753 6.1044 11.7438 6.2403L11.7343 6.25L8.22928 9.75583C7.99619 9.98893 7.85976 10.1273 7.77327 10.2314C7.85943 10.3352 7.99563 10.4734 8.22873 10.7061L9.29315 11.7697C9.52638 12.0029 9.66483 12.1394 9.76895 12.2258Z" fill="currentColor"/>
</symbol>

<symbol id="icon-tool" viewBox="0 0 24 24" fill="none">
	<path fill-rule="evenodd" clip-rule="evenodd" d="M5.75 9.5C6.7165 9.5 7.5 8.7165 7.5 7.75C7.5 6.7835 6.7165 6 5.75 6C4.7835 6 4 6.7835 4 7.75C4 8.7165 4.7835 9.5 5.75 9.5ZM5.75 11.5C7.4654 11.5 8.91179 10.3482 9.35797 8.77579L22 8.77579V6.77579L9.37221 6.77579C8.94329 5.17705 7.4841 4 5.75 4C3.67893 4 2 5.67893 2 7.75C2 9.82107 3.67893 11.5 5.75 11.5ZM14.6278 14.7758C15.0567 13.177 16.5159 12 18.25 12C20.3211 12 22 13.6789 22 15.75C22 17.8211 20.3211 19.5 18.25 19.5C16.5346 19.5 15.0882 18.3482 14.642 16.7758L2 16.7758V14.7758L14.6278 14.7758ZM20 15.75C20 16.7165 19.2165 17.5 18.25 17.5C17.2835 17.5 16.5 16.7165 16.5 15.75C16.5 14.7835 17.2835 14 18.25 14C19.2165 14 20 14.7835 20 15.75Z" fill="currentColor"/>
</symbol>

<symbol id="icon-close-round" viewBox="0 0 16 16" fill="none">
	<path fill-rule="evenodd" clip-rule="evenodd" d="M8 16C12.4183 16 16 12.4182 16 8C16 3.5818 12.4183 0 8 0C3.58172 0 0 3.5818 0 8C0 12.4182 3.58172 16 8 16ZM11.5442 4.45588C11.8382 4.74977 11.8382 5.22656 11.5442 5.52068L9.06483 8L11.5442 10.4793C11.8382 10.7734 11.8382 11.2502 11.5442 11.5441C11.2501 11.8382 10.7734 11.8382 10.4793 11.5441L8 9.0648L5.52065 11.5441C5.22662 11.8382 4.74989 11.8382 4.45582 11.5441C4.16179 11.2502 4.16179 10.7734 4.45582 10.4793L6.93517 8L4.45582 5.52068C4.16179 5.22656 4.16179 4.74977 4.45582 4.45588C4.74986 4.16176 5.22659 4.16176 5.52065 4.45588L8 6.9352L10.4793 4.45588C10.7734 4.16176 11.2501 4.16176 11.5442 4.45588Z" fill="currentColor"/>
</symbol>

<symbol id="icon-close" viewBox="0 0 24 24" fill="none">
	<path d="M20 4L4 20" stroke="currentColor" stroke-width="1.33333" stroke-linecap="round"/>
	<path d="M20 20L4 4" stroke="currentColor" stroke-width="1.33333" stroke-linecap="round"/>
</symbol>

<symbol id="icon-close-lg" viewBox="0 0 40 40" fill="none">
	<path d="M17.6435 19.9995L4.65527 7.01131L7.01229 4.6543L20.0005 17.6424L32.9887 4.6543L35.3457 7.01131L22.3575 19.9995L35.3457 32.9875L32.9887 35.3447L20.0005 22.3565L7.01229 35.3447L4.65527 32.9875L17.6435 19.9995Z" fill="white"/>
</symbol>

<symbol id="icon-close-md" viewBox="0 0 20 20" fill="none">
	<path d="M16.6663 3.33337L3.33301 16.6667" stroke="currentColor" stroke-width="1.33333" stroke-linecap="round"/>
	<path d="M16.6663 16.6667L3.33301 3.33337" stroke="currentColor" stroke-width="1.33333" stroke-linecap="round"/>
</symbol>

<symbol id="icon-close-sm" viewBox="0 0 16 16" fill="none">
	<path d="M13.3337 2.6665L2.66699 13.3332" stroke="currentColor" stroke-width="1.33333" stroke-linecap="round"/>
	<path d="M13.3337 13.3332L2.66699 2.6665" stroke="currentColor" stroke-width="1.33333" stroke-linecap="round"/>
</symbol>

<symbol id="icon-arrow-bottom" viewBox="0 0 13 12" fill="none">
	<path fill-rule="evenodd" clip-rule="evenodd" d="M1.64645 3.64645C1.84171 3.45118 2.15829 3.45118 2.35355 3.64645L6 7.29289L9.64645 3.64645C9.84171 3.45118 10.1583 3.45118 10.3536 3.64645C10.5488 3.84171 10.5488 4.15829 10.3536 4.35355L6.35355 8.35355C6.15829 8.54882 5.84171 8.54882 5.64645 8.35355L1.64645 4.35355C1.45118 4.15829 1.45118 3.84171 1.64645 3.64645Z" fill="currentColor"/>
</symbol>

<symbol id="icon-download" viewBox="0 0 16 16" fill="none">
	<path fill-rule="evenodd" clip-rule="evenodd" d="M8.66638 1.3335L8.66638 8.89609L11.9024 6.15791L12.7637 7.17575L8.43034 10.8424L7.99971 11.2068L7.56908 10.8424L3.23575 7.17575L4.09701 6.15791L7.33305 8.89609L7.33305 1.3335H8.66638ZM1.33301 14.6668H14.6663V13.3335H1.33301V14.6668Z" fill="currentColor"/>
</symbol>

<symbol id="icon-search" viewBox="0 0 20 20" fill="none">
	<path fill-rule="evenodd" clip-rule="evenodd" d="M13.8523 8.5998C13.8523 11.5006 11.5007 13.8522 8.59992 13.8522C5.6991 13.8522 3.34752 11.5006 3.34752 8.5998C3.34752 5.69898 5.6991 3.3474 8.59992 3.3474C11.5007 3.3474 13.8523 5.69898 13.8523 8.5998ZM12.8722 14.0606C11.6948 14.9831 10.2116 15.533 8.59992 15.533C4.77084 15.533 1.66675 12.4289 1.66675 8.5998C1.66675 4.77071 4.77084 1.66663 8.59992 1.66663C12.429 1.66663 15.5331 4.77071 15.5331 8.5998C15.5331 10.2115 14.9832 11.6947 14.0607 12.8721L18.3334 17.1448L17.1449 18.3333L12.8722 14.0606Z" fill="currentColor"/>
</symbol>

<symbol id="icon-arrow-top" viewBox="0 0 16 16" fill="none">
	<path d="M8.66657 5.21903V13.3334H7.33324V5.21903L3.75727 8.79501L2.81445 7.85221L7.99991 2.66675L13.1854 7.85221L12.2426 8.79501L8.66657 5.21903Z" fill="currentColor"/>
</symbol>

<symbol id="icon-del" viewBox="0 0 16 16" fill="none">
	<path fill-rule="evenodd" clip-rule="evenodd" d="M5.33333 0.666504H4.66667V1.33317V3.33317H4H2.66667H0.982422V4.6665H2.66667V13.6665V14.9998H4H12H13.3333V13.6665V4.6665H15.0175V3.33317H13.3333H12H11.3333V1.33317V0.666504H10.6667H5.33333ZM10 3.33317V1.99984H6V3.33317H10ZM4.66667 4.6665H4V13.6665H12V4.6665H11.3333H10H6H4.66667ZM6 10.9998V6.99984H7.33333V10.9998H6ZM8.66667 6.99984V10.9998H10V6.99984H8.66667Z" fill="currentColor"/>
</symbol>

<symbol id="icon-modify" viewBox="0 0 16 16" fill="none">
	<path fill-rule="evenodd" clip-rule="evenodd" d="M9.84494 1.83078L9.37354 1.35938L8.90213 1.83078L1.53193 9.20098L1.33667 9.39624L1.33667 9.67239L1.33667 13.3333H1.3335V14.6667H14.6668V13.3333H7.65465L14.0297 6.95831L14.5011 6.48691L14.0297 6.01551L9.84494 1.83078ZM2.67 9.94853L9.37354 3.24499L12.6155 6.48691L5.91015 13.1922L2.67 13.213L2.67 9.94853Z" fill="currentColor"/>
</symbol>

<symbol id="icon-list" viewBox="0 0 20 20" fill="none">
	<path d="M7.16667 3.33329H18V4.99996H7.16667V3.33329ZM3 2.91663H5.5V5.41663H3V2.91663ZM3 8.74996H5.5V11.25H3V8.74996ZM3 14.5833H5.5V17.0833H3V14.5833ZM7.16667 9.16663H18V10.8333H7.16667V9.16663ZM7.16667 15H18V16.6666H7.16667V15Z" fill="currentColor"/>
</symbol>

<symbol id="icon-caret-down" viewBox="0 0 12 12" fill="none">
	<path d="M5.9998 8.3999L1.1998 3.5999L10.7998 3.5999L5.9998 8.3999Z" fill="currentColor"/>
</symbol>

<symbol id="icon-chevron-double-left" viewBox="0 0 16 16" fill="none">
	<path fill-rule="evenodd" clip-rule="evenodd" d="M7.80148 3.13807C8.06183 2.87772 8.06183 2.45561 7.80148 2.19526C7.54113 1.93491 7.11902 1.93491 6.85867 2.19526L1.52534 7.52859C1.26499 7.78895 1.26499 8.21105 1.52534 8.4714L6.85867 13.8047C7.11902 14.0651 7.54113 14.0651 7.80148 13.8047C8.06183 13.5444 8.06183 13.1223 7.80148 12.8619L2.93955 8L7.80148 3.13807ZM14.4681 3.13807C14.7285 2.87772 14.7285 2.45561 14.4681 2.19526C14.2078 1.93491 13.7857 1.93491 13.5253 2.19526L8.19201 7.52859C7.93166 7.78895 7.93166 8.21105 8.19201 8.4714L13.5253 13.8047C13.7857 14.0651 14.2078 14.0651 14.4681 13.8047C14.7285 13.5444 14.7285 13.1223 14.4681 12.8619L9.60622 8L14.4681 3.13807Z" fill="currentColor"/>
</symbol>

<symbol id="icon-chevron-left" viewBox="0 0 16 16" fill="none">
	<path fill-rule="evenodd" clip-rule="evenodd" d="M11.1379 2.19526C11.3983 2.45561 11.3983 2.87772 11.1379 3.13807L6.27598 8L11.1379 12.8619C11.3983 13.1223 11.3983 13.5444 11.1379 13.8047C10.8776 14.0651 10.4554 14.0651 10.1951 13.8047L4.86177 8.4714C4.60142 8.21105 4.60142 7.78894 4.86177 7.52859L10.1951 2.19526C10.4554 1.93491 10.8776 1.93491 11.1379 2.19526Z" fill="currentColor"/>
</symbol>

<symbol id="icon-chevron-right" viewBox="0 0 16 16" fill="none">
	<path fill-rule="evenodd" clip-rule="evenodd" d="M4.86209 13.8047C4.60174 13.5444 4.60174 13.1223 4.86209 12.8619L9.72402 8L4.86209 3.13807C4.60174 2.87772 4.60174 2.45561 4.86209 2.19526C5.12244 1.93491 5.54455 1.93491 5.8049 2.19526L11.1382 7.5286C11.3986 7.78895 11.3986 8.21106 11.1382 8.47141L5.8049 13.8047C5.54455 14.0651 5.12244 14.0651 4.86209 13.8047Z" fill="currentColor"/>
</symbol>

<symbol id="icon-chevron-double-right" viewBox="0 0 16 16" fill="none">
	<path fill-rule="evenodd" clip-rule="evenodd" d="M8.19217 3.13807C7.93182 2.87772 7.93182 2.45561 8.19217 2.19526C8.45252 1.93491 8.87463 1.93491 9.13498 2.19526L14.4683 7.52859C14.7287 7.78895 14.7287 8.21105 14.4683 8.4714L9.13498 13.8047C8.87463 14.0651 8.45252 14.0651 8.19217 13.8047C7.93182 13.5444 7.93182 13.1223 8.19217 12.8619L13.0541 8L8.19217 3.13807ZM1.5255 3.13807C1.26515 2.87772 1.26515 2.45561 1.5255 2.19526C1.78585 1.93491 2.20796 1.93491 2.46831 2.19526L7.80165 7.52859C8.062 7.78895 8.062 8.21105 7.80165 8.4714L2.46831 13.8047C2.20796 14.0651 1.78585 14.0651 1.5255 13.8047C1.26515 13.5444 1.26515 13.1223 1.5255 12.8619L6.38743 8L1.5255 3.13807Z" fill="currentColor"/>
</symbol>

<symbol id="icon-menu" viewBox="0 0 24 24" fill="none">
	<path d="M3 4H21V6H3V4ZM3 11H21V13H3V11ZM3 18H21V20H3V18Z" fill="currentColor"/>
</symbol>

</svg>